<?xml version="1.0" encoding="UTF-8"?>
<!-- Generated by Pixelmator Pro 3.7 -->
<svg width="74" height="60" viewBox="0 0 74 60" xmlns="http://www.w3.org/2000/svg">
    <path id="Path" fill="#42a7c6" stroke="none" d="M 51.785625 45.065514 L 51.785625 51.759998 L 50.167999 51.759998 C 49.622002 51.759998 49.097 51.587002 48.66 51.263 L 24.139 32.990997 C 23.500999 32.515999 23.125999 31.768 23.125999 30.975 L 23.125999 29.902 C 23.125999 29.089018 23.491732 28.411968 24.036879 27.965565 C 24.862272 27.21661 26.165613 27.030537 27.207001 27.783001 L 50.462002 44.595001 C 50.850624 44.874462 51.309807 45.037102 51.785625 45.065514 Z M 56.215 36.956451 L 56.215 18.019001 C 56.214748 17.379539 55.9701 16.765388 55.53286 16.301399 C 55.524952 16.293289 55.516987 16.285229 55.508961 16.277214 C 55.03693 15.805931 54.397018 15.54147 53.73 15.542 L 51.849998 15.542 C 51.18298 15.54253 50.543068 15.278069 50.071041 14.806789 C 49.817436 14.553585 49.623451 14.251827 49.498146 13.923332 C 49.385048 13.635086 49.325253 13.325638 49.325001 13.010002 L 49.325001 11.505001 C 49.325264 10.839848 49.589954 10.202087 50.060757 9.73222 C 50.531559 9.262356 51.169849 8.99894 51.834999 9 L 60.228001 9 C 60.335785 8.999828 60.442863 9.006603 60.548637 9.020073 C 61.811008 9.153606 62.794968 10.221142 62.796001 11.519001 L 62.796001 40.560333 L 56.215 36.956451 Z M 12.542371 9.002998 L 12.517 9.002998 C 11.84998 9.002468 11.21007 9.266933 10.73804 9.738213 C 10.266011 10.209492 10.00053 10.84898 10 11.515999 L 10 49.243999 C 10.00053 49.911018 10.266011 50.55051 10.73804 51.02179 C 11.21007 51.493069 11.84998 51.75753 12.517 51.757 L 20.946999 51.757 C 21.614193 51.757797 22.25436 51.49345 22.726606 51.022141 C 22.877293 50.871754 23.006941 50.704227 23.113653 50.524136 C 23.410334 50.104252 23.572792 49.600029 23.573 49.078999 L 23.573 47.574001 C 23.57247 46.909019 23.307663 46.271515 22.836887 45.801868 C 22.366114 45.332218 21.727978 45.068939 21.063 45.07 L 19.191 45.07 C 18.52602 45.070797 17.887991 44.807262 17.417404 44.337425 C 16.946817 43.867588 16.682264 43.22998 16.681999 42.564999 L 16.681999 18.015999 C 16.682264 17.351021 16.946817 16.713413 17.417404 16.243576 C 17.710997 15.950451 18.069763 15.737629 18.459587 15.619194 C 18.656988 15.570145 18.861191 15.544834 19.067999 15.544998 L 20.85 15.544998 C 21.380999 15.544998 21.896 15.711998 22.326 16.021999 L 45.673 32.900002 C 47.337002 34.103001 49.667 32.916 49.667 30.864 L 49.667 29.695 C 49.667 28.905001 49.292 28.163 48.66 27.688 L 24.237 9.497002 C 23.80405 9.173908 23.278196 8.999569 22.737999 9 L 12.668 9 C 12.626004 8.99995 12.584116 9.000954 12.542371 9.002998 Z"/>
    <path id="Path-copy" fill="#ffffff" stroke="none" d="M 56.725334 40.196304 C 56.22924 39.924255 55.629131 39.936256 55.141041 40.224312 C 54.652946 40.512363 54.356892 41.036461 54.356892 41.600571 L 54.356892 56.323318 C 54.356892 56.887421 54.656948 57.411522 55.141041 57.699574 C 55.62513 57.987625 56.22924 57.99963 56.725334 57.727577 L 70.167847 50.366203 C 70.679939 50.086151 71 49.546051 71 48.961945 C 71 48.377834 70.679939 47.83773 70.167847 47.557678 L 56.725334 40.196304 Z"/>
</svg>
