<?xml version="1.0" encoding="UTF-8"?>
<!-- Generated by Pixelmator Pro 3.7 -->
<svg width="53" height="43" viewBox="0 0 53 43" xmlns="http://www.w3.org/2000/svg">
    <g id="Group">
        <path id="Path" fill="#33647e" stroke="none" d="M 12.631 0.002998 L 2.517 0.002998 C 1.84998 0.002468 1.21007 0.266933 0.73804 0.738213 C 0.266011 1.209492 0.00053 1.84898 0 2.515999 L 0 40.243999 C 0.00053 40.911018 0.266011 41.55051 0.73804 42.02179 C 1.21007 42.493069 1.84998 42.75753 2.517 42.757 L 10.947 42.757 C 11.614193 42.757797 12.25436 42.49345 12.726606 42.022141 C 13.198852 41.550835 13.46447 40.911194 13.465 40.243999 L 13.465 38.734001 C 13.46447 38.066807 13.198852 37.427166 12.726606 36.955856 C 12.25436 36.48455 11.614193 36.220203 10.947 36.221001 L 9.067 36.221001 C 7.678394 36.221554 6.552104 35.096607 6.551 33.708 L 6.551 9.057999 C 6.55153 8.39098 6.817011 7.751492 7.289041 7.280212 C 7.76107 6.808933 8.40098 6.544468 9.068 6.544998 L 10.85 6.544998 C 11.381 6.544998 11.896 6.711998 12.326 7.021999 L 35.673 23.9 C 37.337002 25.103001 39.667 23.916 39.667 21.864 L 39.667 20.792 C 39.667 19.999001 39.292 19.25 38.654999 18.775999 L 14.136 0.502998 C 13.70135 0.178452 13.17345 0.003071 12.631 0.002998 Z"/>
        <path id="path1" fill="#42a7c6" stroke="none" d="M 40.167999 42.759998 L 50.278999 42.759998 C 50.946018 42.760532 51.58593 42.496067 52.057961 42.024788 C 52.529987 41.553509 52.795471 40.914021 52.796001 40.247002 L 52.796001 2.519001 C 52.794895 1.130394 51.668606 0.005447 50.279999 0.006001 L 41.849998 0.006001 C 41.18298 0.00547 40.543068 0.269932 40.071041 0.741211 C 39.59901 1.21249 39.33353 1.851982 39.333 2.519001 L 39.333 4.028999 C 39.33353 4.696018 39.59901 5.33551 40.071041 5.806789 C 40.543068 6.278069 41.18298 6.54253 41.849998 6.542 L 43.73 6.542 C 44.397018 6.54147 45.03693 6.805931 45.508961 7.277214 C 45.980988 7.748489 46.246471 8.387981 46.247002 9.055 L 46.247002 33.705002 C 46.246471 34.372192 45.98085 35.011833 45.508606 35.483143 C 45.036362 35.954449 44.396194 36.218796 43.729 36.217999 L 41.948002 36.217999 C 41.417686 36.217724 40.900921 36.050484 40.471001 35.740002 L 17.120001 18.867001 C 15.456 17.664 13.126 18.85 13.126 20.902 L 13.126 21.975 C 13.126 22.768 13.501 23.516001 14.139 23.990999 L 38.66 42.263 C 39.097 42.587002 39.622002 42.759998 40.167999 42.759998 Z"/>
        <path id="path2" fill="#33647e" stroke="none" d="M 12.738 0 L 2.668 0 C 2.003113 -0.000797 1.365185 0.262772 0.894758 0.732635 C 0.42433 1.202499 0.16 1.840111 0.16 2.505001 L 0.16 40.078999 C 0.160265 40.744152 0.424955 41.381912 0.895758 41.85178 C 1.366561 42.321644 2.004848 42.58506 2.67 42.584 L 11.063 42.584 C 11.728152 42.58506 12.36644 42.321644 12.837242 41.85178 C 13.308045 41.381912 13.572736 40.744152 13.573 40.078999 L 13.573 38.574001 C 13.57247 37.909019 13.307663 37.271515 12.836888 36.801868 C 12.366115 36.332218 11.727979 36.068939 11.063 36.07 L 9.191 36.07 C 8.526021 36.070797 7.887991 35.807262 7.417405 35.337425 C 6.946818 34.867588 6.682265 34.22998 6.682 33.564999 L 6.682 9.015999 C 6.682265 8.351021 6.946818 7.713413 7.417405 7.243576 C 7.887991 6.773739 8.526021 6.510204 9.191 6.511002 L 10.964 6.511002 C 11.493 6.511002 12.008 6.679001 12.435 6.986 L 35.687 23.792 C 37.346001 24.99 39.667 23.809 39.667 21.764999 L 39.667 20.695 C 39.667 19.905001 39.292 19.163 38.66 18.688 L 14.237 0.497002 C 13.803783 0.17371 13.277549 -0.000648 12.737 0 Z"/>
        <path id="path3" fill="#42a7c6" stroke="none" d="M 40.16 42.581001 L 50.229 42.581001 C 50.893806 42.581795 51.531685 42.318398 52.002243 41.848778 C 52.472801 41.379158 52.737469 40.741806 52.737999 40.077 L 52.737999 2.505001 C 52.737736 1.839848 52.473045 1.202087 52.002243 0.73222 C 51.531441 0.262356 50.89315 -0.00106 50.228001 0 L 41.834999 0 C 41.169849 -0.00106 40.531559 0.262356 40.060757 0.73222 C 39.589954 1.202087 39.325264 1.839848 39.325001 2.505001 L 39.325001 4.010002 C 39.325531 4.67498 39.590336 5.312485 40.061111 5.782131 C 40.531887 6.251781 41.170021 6.51506 41.834999 6.514 L 43.706001 6.514 C 44.370979 6.513203 45.00901 6.776741 45.479595 7.246574 C 45.950184 7.716412 46.214737 8.354019 46.215 9.019001 L 46.215 33.564999 C 46.214737 34.22998 45.950184 34.867588 45.479595 35.337425 C 45.00901 35.807262 44.370979 36.070797 43.706001 36.07 L 41.932999 36.07 C 41.405067 36.06934 40.890617 35.903221 40.462002 35.595001 L 17.207001 18.783001 C 15.549 17.584999 13.227 18.766001 13.227 20.809999 L 13.227 21.879999 C 13.227 22.67 13.602 23.413 14.234 23.886999 L 38.653999 42.084 C 39.094002 42.408001 39.619999 42.581001 40.159 42.581001 Z"/>
    </g>
</svg>
